<?xml version="1.0" encoding="UTF-8" standalone="no"?>
<!-- Created with Inkscape (http://www.inkscape.org/) -->

<svg
   width="120"
   height="120"
   viewBox="0 0 120 120"
   version="1.1"
   id="svg1"
   xml:space="preserve"
   xmlns:inkscape="http://www.inkscape.org/namespaces/inkscape"
   xmlns:sodipodi="http://sodipodi.sourceforge.net/DTD/sodipodi-0.dtd"
   xmlns="http://www.w3.org/2000/svg"
   xmlns:svg="http://www.w3.org/2000/svg"><sodipodi:namedview
     id="namedview1"
     pagecolor="#ffffff"
     bordercolor="#000000"
     borderopacity="0.25"
     inkscape:showpageshadow="2"
     inkscape:pageopacity="0.0"
     inkscape:pagecheckerboard="0"
     inkscape:deskcolor="#d1d1d1"
     inkscape:document-units="px" /><defs
     id="defs1" /><g
     inkscape:label="Capa 1"
     inkscape:groupmode="layer"
     id="layer1"><ellipse
       style="opacity:1;fill:#5e5d5c;fill-opacity:1"
       id="path4"
       cx="61.196018"
       cy="105.10983"
       rx="33.997787"
       ry="11.332596" /><path
       id="path1"
       style="opacity:1;fill:#e95d0c;fill-opacity:1;stroke-width:1.25572"
       d="M 61.478516,5.6660156 A 33.997787,32.014584 0 0 0 27.482422,37.681641 33.997787,32.014584 0 0 0 33.533203,55.814453 l -0.101562,-0.002 c 0,0 12.692013,16.733625 17.77539,25.882812 4.262654,7.672033 10.554688,24.123045 10.554688,24.123045 0,0 6.236606,-15.813432 10.263672,-23.275388 4.864936,-9.014492 16.499505,-25.544078 16.826171,-26.007813 a 33.997787,32.014584 0 0 0 6.625,-18.853515 A 33.997787,32.014584 0 0 0 61.478516,5.6660156 Z M 61.761719,23.232422 A 13.315801,13.315801 0 0 1 75.078125,36.546875 13.315801,13.315801 0 0 1 61.761719,49.863281 13.315801,13.315801 0 0 1 48.447266,36.546875 13.315801,13.315801 0 0 1 61.761719,23.232422 Z" /></g></svg>
